name C:\Users\r0593348\3dpredictsim\Results\batch_windlass\Pog_s1_tmt_bCst_d05_k800_WL40_ig24_act_TTC.mot
datacolumns 128
datarows 4
range 0.00000000 0.03622227
endheader
time	pelvis_tilt	pelvis_list	pelvis_rotation	pelvis_tx	pelvis_ty	pelvis_tz	hip_flexion_l	hip_adduction_l	hip_rotation_l	hip_flexion_r	hip_adduction_r	hip_rotation_r	knee_angle_l	knee_angle_r	ankle_angle_l	ankle_angle_r	subtalar_angle_l	subtalar_angle_r	tmt_angle_l	tmt_angle_r	mtp_angle_l	mtp_angle_r	lumbar_extension	lumbar_bending	lumbar_rotation	arm_flex_l	arm_add_l	arm_rot_l	arm_flex_r	arm_add_r	arm_rot_r	elbow_flex_l	elbow_flex_r	pro_sup_l	pro_sup_r	glut_med1_l/activation	glut_med2_l/activation	glut_med3_l/activation	glut_min1_l/activation	glut_min2_l/activation	glut_min3_l/activation	semimem_l/activation	semiten_l/activation	bifemlh_l/activation	bifemsh_l/activation	sar_l/activation	add_long_l/activation	add_brev_l/activation	add_mag1_l/activation	add_mag2_l/activation	add_mag3_l/activation	tfl_l/activation	pect_l/activation	grac_l/activation	glut_max1_l/activation	glut_max2_l/activation	glut_max3_l/activation	iliacus_l/activation	psoas_l/activation	quad_fem_l/activation	gem_l/activation	peri_l/activation	rect_fem_l/activation	vas_med_l/activation	vas_int_l/activation	vas_lat_l/activation	med_gas_l/activation	lat_gas_l/activation	soleus_l/activation	tib_post_l/activation	flex_dig_l/activation	flex_hal_l/activation	tib_ant_l/activation	per_brev_l/activation	per_long_l/activation	per_tert_l/activation	ext_dig_l/activation	ext_hal_l/activation	ercspn_l/activation	intobl_l/activation	extobl_l/activation	glut_med1_r/activation	glut_med2_r/activation	glut_med3_r/activation	glut_min1_r/activation	glut_min2_r/activation	glut_min3_r/activation	semimem_r/activation	semiten_r/activation	bifemlh_r/activation	bifemsh_r/activation	sar_r/activation	add_long_r/activation	add_brev_r/activation	add_mag1_r/activation	add_mag2_r/activation	add_mag3_r/activation	tfl_r/activation	pect_r/activation	grac_r/activation	glut_max1_r/activation	glut_max2_r/activation	glut_max3_r/activation	iliacus_r/activation	psoas_r/activation	quad_fem_r/activation	gem_r/activation	peri_r/activation	rect_fem_r/activation	vas_med_r/activation	vas_int_r/activation	vas_lat_r/activation	med_gas_r/activation	lat_gas_r/activation	soleus_r/activation	tib_post_r/activation	flex_dig_r/activation	flex_hal_r/activation	tib_ant_r/activation	per_brev_r/activation	per_long_r/activation	per_tert_r/activation	ext_dig_r/activation	ext_hal_r/activation	ercspn_r/activation	intobl_r/activation	extobl_r/activation	
          0.00000000	         -2.93017621	         -0.78300836	          7.82231840	          0.00000000	          0.85714898	         -0.00188241	        -16.11465338	         -2.14545990	          7.70816567	         33.28324157	         -0.13717922	         -2.30314386	        -14.95635184	        -18.07590700	         -2.75017281	          6.21705764	         16.83164448	          4.19383296	        -14.32343985	         -0.29042581	         34.89559306	          0.66475275	          0.32415523	         -1.85557665	         -2.87789510	          2.63695416	        -13.50251219	         15.88140707	        -13.95349156	        -13.47483500	          6.18352908	         43.39361637	         20.18589038	         86.51662706	         86.51662706	          0.17313970	          0.06006480	          0.05000656	          0.20946171	          0.12546531	          0.06006802	          0.05002383	          0.05000255	          0.05000218	          0.05000136	          0.07218299	          0.08320266	          0.05000455	          0.05000351	          0.05000753	          0.05002041	          0.16020641	          0.05000990	          0.05000258	          0.05003981	          0.05003381	          0.05003003	          0.31017941	          0.49259786	          0.05000106	          0.05000894	          0.06006174	          0.25120723	          0.09083336	          0.05001409	          0.08428564	          0.14218463	          0.19262167	          0.05000005	          0.12005576	          0.10923943	          0.13784723	          0.15233858	          0.32845659	          0.29118898	          0.47366614	          0.33246677	          0.15985055	          0.05000004	          0.05815320	          0.05136655	          0.05000147	          0.06006316	          0.05000276	          0.05000181	          0.05000281	          0.05006134	          0.07137766	          0.06006488	          0.13805123	          0.06006008	          0.05000134	          0.05003270	          0.06528982	          0.13724469	          0.15693738	          0.11676261	          0.05000322	          0.05000428	          0.06991699	          0.06006295	          0.06006342	          0.13007983	          0.06825348	          0.07509951	          0.15079891	          0.05000327	          0.08343226	          0.05000160	          0.07129497	          0.08716011	          0.06765082	          0.05989029	          0.05847298	          0.06347890	          0.06006164	          0.06012643	          0.06237903	          0.49166344	          0.27839059	          0.20069314	          0.12523095	          0.51495885	          0.21022028	          0.05000009	          0.13208201	          0.12466206	
          0.01207409	         -2.92782262	         -0.68390083	          8.00297296	          0.01945284	          0.85607363	         -0.00159270	        -16.41066017	         -2.34262076	          7.51488367	         32.62806747	          0.03240051	         -2.10820688	        -15.99054761	        -17.71765538	         -5.33011310	          5.74782392	         17.38291315	          3.74726807	        -14.89351681	         -0.31511893	         35.75801175	          0.72842998	          0.56869518	         -1.70812577	         -2.97828378	          2.22184005	        -13.55974413	         16.20618341	        -15.40553783	        -13.46225689	          6.16127089	         44.59328450	         20.19029307	         86.51662706	         86.51662706	          0.14413502	          0.05000293	          0.05000045	          0.17437247	          0.10444726	          0.05000613	          0.05000348	          0.05000045	          0.05000042	          0.05000523	          0.07945487	          0.17052312	          0.19980019	          0.09747954	          0.05000855	          0.05000088	          0.13336838	          0.11506206	          0.07206380	          0.05000481	          0.05000262	          0.05000153	          0.25821745	          0.41007651	          0.06411046	          0.05000444	          0.05000102	          0.20912423	          0.10410479	          0.10410722	          0.08666560	          0.11836540	          0.16035308	          0.05000008	          0.09994365	          0.09093960	          0.11475474	          0.38246004	          0.38966159	          0.30076335	          0.50579092	          0.42908656	          0.13307210	          0.05000146	          0.05000036	          0.06622002	          0.08607343	          0.05000214	          0.27328861	          0.06006235	          0.06006120	          0.05000337	          0.05942191	          0.05000284	          0.12034597	          0.05000060	          0.05003228	          0.08667106	          0.14615859	          0.25201509	          0.20767961	          0.14832390	          0.05000088	          0.08454644	          0.05820619	          0.05000133	          0.05000155	          0.16170381	          0.06085022	          0.06251917	          0.12553684	          0.15025310	          0.16573450	          0.07213882	          0.20424457	          0.19908346	          0.17289532	          0.05000069	          0.05000066	          0.05284543	          0.05000020	          0.05005437	          0.05192980	          0.66452898	          0.29876389	          0.16707403	          0.51534397	          0.60430363	          0.37282266	          0.05000065	          0.10995523	          0.10377828	
          0.02414818	         -2.91919021	         -0.59522762	          8.14456950	          0.03907794	          0.85455055	         -0.00131540	        -16.55692243	         -2.51506439	          7.32722705	         31.85896848	          0.22504025	         -1.85162582	        -17.39021505	        -18.05657329	         -7.67216881	          5.09073658	         17.88780288	          3.28766253	        -14.83473709	         -0.39366706	         35.17372440	          0.85473091	          0.81896803	         -1.53108888	         -3.06374380	          1.74481438	        -13.63291033	         16.46707905	        -16.81307652	        -13.46756014	          6.24513203	         45.78794473	         20.12245397	         86.51662706	         86.51662706	          0.11998925	          0.06006305	          0.06006330	          0.14516144	          0.08695021	          0.06006465	          0.05003770	          0.05003030	          0.06006149	          0.05000107	          0.06614516	          0.16168145	          0.30177652	          0.16592178	          0.09236540	          0.12237885	          0.11102632	          0.09578787	          0.06006514	          0.05026325	          0.05659855	          0.06007221	          0.21496011	          0.34137941	          0.07214531	          0.06008599	          0.06006236	          0.17409109	          0.08666554	          0.08666721	          0.07214764	          0.09853645	          0.13349023	          0.05000004	          0.08320080	          0.07570557	          0.09553080	          0.31838919	          0.32438575	          0.25221616	          0.43044854	          0.64520194	          0.37419740	          0.07438592	          0.06006183	          0.06392426	          0.19727894	          0.05000277	          0.22751920	          0.05000087	          0.05000083	          0.05000348	          0.05000058	          0.05000056	          0.10018536	          0.05000031	          0.05000104	          0.07215181	          0.12167378	          0.20979940	          0.21207417	          0.14666276	          0.05000440	          0.07038467	          0.05000120	          0.15192596	          0.13682028	          0.14439029	          0.05065654	          0.05204600	          0.28506086	          0.12508269	          0.13797048	          0.06006191	          0.24839348	          0.24181077	          0.21185053	          0.05000055	          0.05000083	          0.05000010	          0.05000010	          0.05000376	          0.05000143	          0.57574874	          0.30707243	          0.16796067	          0.65922415	          0.58626096	          0.31036650	          0.05000003	          0.09153519	          0.08639301	
          0.03622227	         -2.90585379	         -0.52225819	          8.24368424	          0.05866949	          0.85269037	         -0.00104434	        -16.52904166	         -2.66435753	          7.15316224	         30.94957098	          0.42520498	         -1.56039276	        -19.19443199	        -18.75960476	         -9.60810294	          4.74599624	         18.30061398	          2.77605688	        -14.03974093	         -0.71020145	         32.73481663	          0.85016423	          1.06108263	         -1.32449803	         -3.13224074	          1.24191328	        -13.71086625	         16.66563875	        -18.11936911	        -13.49195484	          6.47807613	         46.94330701	         19.93296253	         86.51662706	         86.51662706	          0.26016260	          0.05000145	          0.05000139	          0.12085339	          0.07238437	          0.05000285	          0.05000425	          0.05000043	          0.05000079	          0.05000039	          0.05506632	          0.13459729	          0.25122337	          0.13812732	          0.07689449	          0.10187943	          0.09242709	          0.07974228	          0.05000389	          0.05000717	          0.05000445	          0.05001004	          0.17894943	          0.32530119	          0.06005944	          0.05002072	          0.05000068	          0.14492680	          0.07214816	          0.07214893	          0.06006207	          0.08202931	          0.11112754	          0.05000015	          0.06926279	          0.06302357	          0.07952735	          0.35916197	          0.31694932	          0.22747992	          0.38017105	          0.53711579	          0.31151070	          0.10457349	          0.05000011	          0.05321553	          0.27795301	          0.34970999	          0.55481052	          0.28579712	          0.19274472	          0.43393216	          0.06339918	          0.08539906	          0.08340254	          0.07214782	          0.05331298	          0.06006490	          0.10129078	          0.17465354	          0.17654763	          0.15141112	          0.05000080	          0.06006179	          0.08652592	          0.27207884	          0.20873474	          0.16943517	          0.05593158	          0.05000155	          0.23730697	          0.10413588	          0.34217062	          0.05000027	          0.23114432	          0.26585507	          0.23219536	          0.05000015	          0.05000034	          0.05000009	          0.05000027	          0.05000080	          0.05000110	          0.75054039	          0.25563070	          0.13982338	          0.62268542	          0.64253639	          0.46899020	          0.06402033	          0.07620097	          0.07192019	
